<svg width="87" height="85" viewBox="0 0 87 85" fill="none" xmlns="http://www.w3.org/2000/svg">
<g filter="url(#filter0_d_1369_5656)">
<path d="M43.5 75.3633C64.763 75.3633 82 58.7165 82 38.1816C82 17.6468 64.763 1 43.5 1C22.237 1 5 17.6468 5 38.1816C5 58.7165 22.237 75.3633 43.5 75.3633Z" fill="#AACE9B"/>
</g>
<path d="M58.7363 34.2007H47.2743V23.304C47.2715 22.9834 47.2034 22.6665 47.0738 22.3713C46.9442 22.0761 46.7557 21.8084 46.519 21.5836C46.2823 21.3588 46.0021 21.1812 45.6943 21.061C45.3865 20.9407 45.0573 20.8802 44.7253 20.8829H42.1803C41.5101 20.878 40.8654 21.1303 40.3878 21.5843C39.9102 22.0383 39.6388 22.6569 39.6333 23.304V34.2007H28.1722C27.5021 34.1958 26.8574 34.4481 26.3798 34.9021C25.9022 35.3561 25.6308 35.9746 25.6252 36.6218V39.043C25.6308 39.6901 25.9022 40.3087 26.3798 40.7627C26.8574 41.2167 27.5021 41.469 28.1722 41.4641H39.6333V52.3607C39.6388 53.0079 39.9102 53.6265 40.3878 54.0805C40.8654 54.5345 41.5101 54.7868 42.1803 54.7819H44.7253C45.3954 54.7868 46.0401 54.5345 46.5177 54.0805C46.9953 53.6265 47.2667 53.0079 47.2723 52.3607V41.4641H58.7363C59.4064 41.469 60.0511 41.2167 60.5287 40.7627C61.0063 40.3087 61.2777 39.6901 61.2833 39.043V36.6218C61.2777 35.9746 61.0063 35.3561 60.5287 34.9021C60.0511 34.4481 59.4064 34.1958 58.7363 34.2007Z" fill="white"/>
<defs>
<filter id="filter0_d_1369_5656" x="0" y="0" width="87" height="84.3633" filterUnits="userSpaceOnUse" color-interpolation-filters="sRGB">
<feFlood flood-opacity="0" result="BackgroundImageFix"/>
<feColorMatrix in="SourceAlpha" type="matrix" values="0 0 0 0 0 0 0 0 0 0 0 0 0 0 0 0 0 0 127 0" result="hardAlpha"/>
<feOffset dy="4"/>
<feGaussianBlur stdDeviation="2.5"/>
<feColorMatrix type="matrix" values="0 0 0 0 0 0 0 0 0 0 0 0 0 0 0 0 0 0 0.2 0"/>
<feBlend mode="normal" in2="BackgroundImageFix" result="effect1_dropShadow_1369_5656"/>
<feBlend mode="normal" in="SourceGraphic" in2="effect1_dropShadow_1369_5656" result="shape"/>
</filter>
</defs>
</svg>
